<?xml version="1.0" encoding="UTF-8" standalone="no"?>
<!-- Created with Inkscape (http://www.inkscape.org/) -->

<svg
   width="73.556107mm"
   height="59.800842mm"
   viewBox="0 0 73.556107 59.800842"
   version="1.1"
   id="svg5"
   inkscape:version="1.1.2 (0a00cf5339, 2022-02-04)"
   sodipodi:docname="codesentry_full_logo_white.svg"
   xmlns:inkscape="http://www.inkscape.org/namespaces/inkscape"
   xmlns:sodipodi="http://sodipodi.sourceforge.net/DTD/sodipodi-0.dtd"
   xmlns="http://www.w3.org/2000/svg"
   xmlns:svg="http://www.w3.org/2000/svg">
  <sodipodi:namedview
     id="namedview7"
     pagecolor="#ffffff"
     bordercolor="#666666"
     borderopacity="1.0"
     inkscape:pageshadow="2"
     inkscape:pageopacity="0.0"
     inkscape:pagecheckerboard="0"
     inkscape:document-units="mm"
     showgrid="false"
     inkscape:snap-center="true"
     inkscape:snap-object-midpoints="true"
     fit-margin-top="0"
     fit-margin-left="0"
     fit-margin-right="0"
     fit-margin-bottom="0"
     inkscape:zoom="1"
     inkscape:cx="134.5"
     inkscape:cy="-225"
     inkscape:window-width="3840"
     inkscape:window-height="2086"
     inkscape:window-x="1920"
     inkscape:window-y="44"
     inkscape:window-maximized="1"
     inkscape:current-layer="layer1" />
  <defs
     id="defs2" />
  <g
     inkscape:label="Camada 1"
     inkscape:groupmode="layer"
     id="layer1"
     transform="translate(-10.280533,-111.85691)">
    <g
       aria-label="C"
       id="text5018-3"
       style="font-size:10.5833px;line-height:1.25;stroke-width:0.264583"
       transform="matrix(1.9086484,0,0,-1.9086484,-73.948001,336.28569)" />
    <g
       aria-label="C"
       id="text5018-3-7"
       style="font-size:10.5833px;line-height:1.25;stroke-width:0.264583"
       transform="matrix(1.9086484,0,0,1.9086484,-73.948001,-103.55593)" />
    <g
       id="g44694"
       style="fill:#800000">
      <g
         id="g44685"
         style="fill:#800000">
        <g
           aria-label="CODESENTRY"
           id="text20609"
           style="font-size:7.41154px;line-height:1.25;letter-spacing:1.38411px;stroke-width:0.185289;fill:#800000" />
      </g>
      <g
         aria-label="Uninterrupted Vigilance for Flawless Code"
         id="text32905"
         style="font-size:4.839px;line-height:1.25;stroke-width:0.120975;fill:#800000">
        <path
           id="path44848"
           style="font-family:'Liberation Sans Narrow';-inkscape-font-specification:'Liberation Sans Narrow';fill:#800000"
           d="m 82.324453,169.46508 q 0,0.20084 0.04253,0.37096 0.04253,0.16776 0.113414,0.29062 0.07088,0.1205 0.179572,0.18903 0.111052,0.0662 0.266996,0.0662 0.226828,0 0.36387,-0.11105 0.137042,-0.11105 0.184298,-0.28117 l 0.307163,0.10633 q -0.03308,0.10632 -0.09215,0.21501 -0.05907,0.10633 -0.158307,0.19375 -0.09924,0.0851 -0.248093,0.14177 -0.146493,0.0543 -0.356782,0.0543 -0.46547,0 -0.708838,-0.33788 -0.243368,-0.33788 -0.243368,-1.00419 0,-0.35914 0.07325,-0.60723 0.07561,-0.25046 0.2032,-0.4064 0.127591,-0.15595 0.297712,-0.22447 0.170121,-0.0709 0.36387,-0.0709 0.264633,0 0.441843,0.10396 0.342605,0.20084 0.437116,0.71829 0.04489,0.24809 0.04489,0.53635 v 0.0567 z m 1.162494,-0.32607 q 0,-0.42766 -0.16067,-0.60015 -0.158307,-0.17484 -0.418214,-0.17484 -0.184298,0 -0.359145,0.15594 -0.212651,0.18194 -0.224465,0.61905 z m -2.296634,1.10343 q -0.09687,0.24573 -0.257545,0.35205 -0.158307,0.10633 -0.394586,0.10633 -0.396949,0 -0.58361,-0.32607 -0.186661,-0.32606 -0.186661,-0.98764 0,-1.33734 0.770271,-1.33734 0.238642,0 0.396949,0.10632 0.158307,0.10633 0.255182,0.33788 h 0.0047 q 0,-0.0236 -0.0024,-0.0756 v -0.10396 q -0.0024,-0.0567 -0.0024,-0.10633 v -0.0709 -0.99001 h 0.349693 v 2.97948 q 0,0.0922 0,0.17721 0.0024,0.0851 0.0024,0.15595 0.0024,0.0709 0.0047,0.12286 0.0024,0.0496 0.0047,0.0709 h -0.333154 q -0.0047,-0.0236 -0.0071,-0.0661 -0.0024,-0.0449 -0.0071,-0.1016 -0.0024,-0.0567 -0.0047,-0.11814 0,-0.0638 0,-0.12523 z m -1.056169,-0.86951 q 0,0.26463 0.02599,0.45366 0.02599,0.18902 0.08506,0.31189 0.06143,0.1205 0.153582,0.17721 0.09451,0.0567 0.229191,0.0567 0.137042,0 0.241005,-0.0543 0.106326,-0.0543 0.177209,-0.17485 0.07088,-0.12286 0.106326,-0.31898 0.03781,-0.19611 0.03781,-0.47964 0,-0.27172 -0.03781,-0.45838 -0.03544,-0.18903 -0.108688,-0.30481 -0.07088,-0.11577 -0.174847,-0.16539 -0.1016,-0.052 -0.238642,-0.052 -0.127591,0 -0.222103,0.0543 -0.09215,0.0543 -0.153581,0.17485 -0.06143,0.1205 -0.09215,0.31425 -0.02835,0.19139 -0.02835,0.46547 z m -0.701749,0 q 0,0.67103 -0.243367,0.99946 -0.241005,0.32843 -0.70175,0.32843 -0.21974,0 -0.392224,-0.0803 -0.170121,-0.0803 -0.290623,-0.24574 -0.11814,-0.16539 -0.181935,-0.41348 -0.06143,-0.25046 -0.06143,-0.58834 0,-1.32316 0.938029,-1.32316 0.243368,0 0.420577,0.0827 0.179572,0.0827 0.292986,0.2481 0.113415,0.16539 0.165396,0.41349 0.05434,0.24809 0.05434,0.57888 z m -0.366233,0 q 0,-0.29771 -0.0378,-0.49146 -0.03544,-0.19375 -0.108689,-0.30953 -0.07325,-0.11577 -0.179572,-0.16067 -0.103963,-0.0472 -0.233917,-0.0472 -0.134679,0 -0.243367,0.0496 -0.106326,0.0473 -0.181935,0.16539 -0.07561,0.11578 -0.115777,0.30953 -0.03781,0.19375 -0.03781,0.48437 0,0.29771 0.04253,0.49382 0.04253,0.19375 0.115777,0.30953 0.07561,0.11578 0.17721,0.16303 0.1016,0.0473 0.222102,0.0473 0.134679,0 0.241005,-0.0449 0.108689,-0.0473 0.184298,-0.16304 0.07561,-0.11577 0.115777,-0.31189 0.04017,-0.19611 0.04017,-0.49382 z m -3.003105,-1.72956 q -0.231554,0 -0.411126,0.0945 -0.179573,0.0945 -0.300075,0.26936 -0.120502,0.17484 -0.184298,0.42057 -0.06143,0.24573 -0.06143,0.54581 0,0.30007 0.06616,0.55053 0.06852,0.24809 0.191386,0.42766 0.125228,0.17958 0.307163,0.27881 0.181935,0.0992 0.408763,0.0992 0.158307,0 0.288261,-0.0496 0.129954,-0.052 0.236279,-0.14413 0.106326,-0.0922 0.189024,-0.21737 0.0827,-0.1276 0.146493,-0.28118 l 0.302437,0.1843 q -0.07325,0.18666 -0.181935,0.34733 -0.108688,0.16067 -0.255181,0.27881 -0.146493,0.11814 -0.330791,0.18666 -0.184298,0.0662 -0.413489,0.0662 -0.330791,0 -0.581247,-0.12759 -0.248093,-0.12995 -0.415852,-0.35915 -0.165395,-0.23155 -0.250456,-0.54816 -0.0827,-0.31662 -0.0827,-0.6923 0,-0.38986 0.08742,-0.70411 0.08979,-0.31426 0.257544,-0.53399 0.170121,-0.22211 0.418215,-0.34025 0.248093,-0.1205 0.564707,-0.1205 0.434754,0 0.72774,0.20793 0.292987,0.20792 0.430029,0.61669 l -0.349694,0.14176 q -0.0378,-0.11814 -0.103963,-0.22446 -0.06616,-0.10869 -0.165395,-0.19139 -0.09924,-0.0827 -0.231554,-0.13232 -0.132316,-0.0496 -0.302437,-0.0496 z m -2.78101,2.30372 q 0,0.17957 -0.05671,0.32134 -0.05671,0.1394 -0.165396,0.23628 -0.108688,0.0945 -0.266995,0.14649 -0.158307,0.0496 -0.361508,0.0496 -0.181935,0 -0.328428,-0.0354 -0.146493,-0.0331 -0.257544,-0.10869 -0.108689,-0.0756 -0.184298,-0.19847 -0.07325,-0.12523 -0.108689,-0.3048 l 0.307163,-0.0733 q 0.04489,0.20556 0.184298,0.30244 0.139405,0.0945 0.387498,0.0945 0.113414,0 0.205563,-0.0189 0.09451,-0.0189 0.163033,-0.0638 0.06852,-0.0473 0.106326,-0.12287 0.0378,-0.078 0.0378,-0.19138 0,-0.11578 -0.04489,-0.18903 -0.04489,-0.0756 -0.125228,-0.12522 -0.07797,-0.0496 -0.191386,-0.0851 l -0.250456,-0.0827 q -0.125228,-0.0402 -0.250456,-0.0898 -0.122865,-0.0496 -0.222103,-0.12995 -0.09924,-0.0827 -0.163032,-0.2032 -0.06143,-0.1205 -0.06143,-0.30244 0,-0.34969 0.2032,-0.53163 0.205563,-0.1843 0.597787,-0.1843 0.347331,0 0.550531,0.14886 0.205563,0.14886 0.259907,0.47729 l -0.314252,0.0473 q -0.01654,-0.0992 -0.0638,-0.16539 -0.04726,-0.0685 -0.113414,-0.10869 -0.06616,-0.0425 -0.148856,-0.0591 -0.08034,-0.0189 -0.170121,-0.0189 -0.236279,0 -0.349693,0.0874 -0.111052,0.0874 -0.111052,0.26463 0,0.10396 0.04017,0.17248 0.04253,0.0662 0.115777,0.11342 0.07561,0.0449 0.179572,0.078 l 0.231554,0.0733 q 0,0 0.170121,0.0543 0.08742,0.0307 0.170121,0.0733 0.0827,0.0402 0.153581,0.0969 0.07325,0.0543 0.127591,0.13232 0.05434,0.078 0.08506,0.18193 0.03308,0.10397 0.03308,0.24101 z m -1.984749,0 q 0,0.17957 -0.05671,0.32134 -0.05671,0.1394 -0.165396,0.23628 -0.108688,0.0945 -0.266995,0.14649 -0.158307,0.0496 -0.361507,0.0496 -0.181936,0 -0.328429,-0.0354 -0.146493,-0.0331 -0.257544,-0.10869 -0.108689,-0.0756 -0.184298,-0.19847 -0.07325,-0.12523 -0.108689,-0.3048 l 0.307164,-0.0733 q 0.04489,0.20556 0.184297,0.30244 0.139405,0.0945 0.387499,0.0945 0.113414,0 0.205563,-0.0189 0.09451,-0.0189 0.163032,-0.0638 0.06852,-0.0473 0.106326,-0.12287 0.0378,-0.078 0.0378,-0.19138 0,-0.11578 -0.04489,-0.18903 -0.04489,-0.0756 -0.125228,-0.12522 -0.07797,-0.0496 -0.191387,-0.0851 l -0.250456,-0.0827 q -0.125228,-0.0402 -0.250456,-0.0898 -0.122865,-0.0496 -0.222102,-0.12995 -0.09924,-0.0827 -0.163033,-0.2032 -0.06143,-0.1205 -0.06143,-0.30244 0,-0.34969 0.2032,-0.53163 0.205563,-0.1843 0.597787,-0.1843 0.347331,0 0.550531,0.14886 0.205563,0.14886 0.259907,0.47729 l -0.314251,0.0473 q -0.01654,-0.0992 -0.0638,-0.16539 -0.04726,-0.0685 -0.113414,-0.10869 -0.06616,-0.0425 -0.148856,-0.0591 -0.08034,-0.0189 -0.170121,-0.0189 -0.236279,0 -0.349693,0.0874 -0.111052,0.0874 -0.111052,0.26463 0,0.10396 0.04017,0.17248 0.04253,0.0662 0.115777,0.11342 0.07561,0.0449 0.179572,0.078 l 0.231554,0.0733 q 0,0 0.170121,0.0543 0.08742,0.0307 0.170121,0.0733 0.0827,0.0402 0.153582,0.0969 0.07325,0.0543 0.12759,0.13232 0.05434,0.078 0.08506,0.18193 0.03308,0.10397 0.03308,0.24101 z m -3.530012,-0.48201 q 0,0.20084 0.04253,0.37096 0.04253,0.16776 0.113414,0.29062 0.07088,0.1205 0.179572,0.18903 0.111052,0.0662 0.266996,0.0662 0.226828,0 0.36387,-0.11105 0.137042,-0.11105 0.184298,-0.28117 l 0.307163,0.10633 q -0.03308,0.10632 -0.09215,0.21501 -0.05907,0.10633 -0.158307,0.19375 -0.09924,0.0851 -0.248093,0.14177 -0.146493,0.0543 -0.356782,0.0543 -0.46547,0 -0.708838,-0.33788 -0.243368,-0.33788 -0.243368,-1.00419 0,-0.35914 0.07325,-0.60723 0.07561,-0.25046 0.2032,-0.4064 0.127591,-0.15595 0.297712,-0.22447 0.170121,-0.0709 0.36387,-0.0709 0.264633,0 0.441843,0.10396 0.342605,0.20084 0.437116,0.71829 0.04489,0.24809 0.04489,0.53635 v 0.0567 z m 1.162494,-0.32607 q 0,-0.42766 -0.16067,-0.60015 -0.158307,-0.17484 -0.418214,-0.17484 -0.184298,0 -0.359145,0.15594 -0.212651,0.18194 -0.224465,0.61905 z m -2.294271,1.51455 v -3.50638 h 0.349693 v 3.50638 z m -0.857694,0 h -0.404037 l -0.335517,-1.64923 q -0.01654,-0.0638 -0.03308,-0.1583 -0.01418,-0.0945 -0.03072,-0.1843 0,0 -0.03781,-0.21501 -0.01654,0.10632 -0.03544,0.21028 0,0 -0.03544,0.18666 -0.01654,0.0969 -0.03308,0.17013 l -0.344968,1.63977 h -0.401674 l -0.585973,-2.55654 h 0.342605 l 0.354419,1.73666 q 0.01418,0.0543 0.02835,0.13467 0.01418,0.078 0.02599,0.15359 0.01418,0.0874 0.03072,0.17957 l 0.03308,-0.17485 q 0.01654,-0.0732 0.03072,-0.14885 0.01418,-0.0756 0.02599,-0.12523 l 0.38041,-1.75556 h 0.373321 l 0.366233,1.75556 q 0.01418,0.0614 0.02835,0.1394 0.01654,0.078 0.02835,0.1465 0.01654,0.0803 0.03072,0.16303 0,0 0.03308,-0.17485 0,0 0.02835,-0.15358 l 0.02599,-0.1394 0.370959,-1.73666 h 0.340242 z m -3.678868,0.0473 q -0.316614,0 -0.474921,-0.2032 -0.158307,-0.2032 -0.158307,-0.55762 0,-0.25282 0.07797,-0.41349 0.08033,-0.16303 0.205563,-0.25518 0.127591,-0.0922 0.290623,-0.12759 0.163033,-0.0354 0.330791,-0.0402 l 0.472559,-0.009 v -0.1394 q 0,-0.15831 -0.02835,-0.26936 -0.02599,-0.11105 -0.0827,-0.17957 -0.05671,-0.0685 -0.141768,-0.0992 -0.0827,-0.0331 -0.198475,-0.0331 -0.1016,0 -0.181935,0.0189 -0.08033,0.0165 -0.141767,0.0638 -0.05907,0.0449 -0.09687,0.12522 -0.03544,0.078 -0.04726,0.19848 l -0.36387,-0.0402 q 0.0189,-0.15122 0.07325,-0.27644 0.05434,-0.1276 0.153581,-0.21974 0.09924,-0.0922 0.248094,-0.14177 0.151218,-0.052 0.366233,-0.052 0.394586,0 0.593061,0.2221 0.200837,0.21974 0.200837,0.63795 v 1.10106 q 0,0.18903 0.04017,0.2859 0.04017,0.0945 0.155944,0.0945 0.02835,0 0.05671,-0.005 0.03072,-0.005 0.05671,-0.0118 v 0.26464 q -0.06616,0.0189 -0.132316,0.0284 -0.0638,0.009 -0.137042,0.009 -0.09924,0 -0.170121,-0.0307 -0.07088,-0.0331 -0.115777,-0.0969 -0.04253,-0.0662 -0.06616,-0.16067 -0.02363,-0.0969 -0.03072,-0.22446 h -0.0095 q -0.05671,0.12286 -0.125228,0.2221 -0.06616,0.0992 -0.155944,0.17012 -0.08742,0.0685 -0.203201,0.10633 -0.113414,0.0378 -0.259907,0.0378 z m 0.08033,-0.31898 q 0.167758,0 0.290624,-0.0732 0.125228,-0.0756 0.207925,-0.19139 0.0827,-0.11578 0.122866,-0.25282 0.04253,-0.13704 0.04253,-0.26227 v -0.21029 l -0.382773,0.009 q -0.12759,0.002 -0.243367,0.0236 -0.115777,0.0189 -0.2032,0.078 -0.08506,0.0591 -0.137042,0.1654 -0.05198,0.10633 -0.05198,0.27881 0,0.20793 0.09215,0.32134 0.09215,0.11341 0.26227,0.11341 z m -1.495642,0.27172 v -3.50638 h 0.349693 v 3.50638 z m -1.996563,-2.96058 v 1.23811 h 1.524001 v 0.37332 h -1.524001 v 1.34915 h -0.368596 v -3.32917 h 1.939853 v 0.36859 z m -2.844802,2.96058 v -1.96111 q 0,0 0,-0.1654 0,-0.0827 -0.0024,-0.16067 -0.0024,-0.078 -0.0047,-0.14649 -0.0024,-0.0685 -0.0047,-0.12287 h 0.330791 q 0.0024,0.0543 0.0047,0.12523 0.0024,0.0685 0.0047,0.14177 0.0047,0.0732 0.0047,0.1394 v 0.11578 h 0.0095 q 0.0378,-0.14649 0.07797,-0.25282 0.04017,-0.10869 0.09687,-0.17721 0.05671,-0.0709 0.13468,-0.10396 0.07797,-0.0354 0.18666,-0.0354 0.04253,0 0.08033,0.009 0.04017,0.007 0.06143,0.0142 v 0.38987 q -0.03544,-0.0118 -0.0827,-0.0165 -0.04489,-0.007 -0.103963,-0.007 -0.120502,0 -0.205563,0.0662 -0.0827,0.0662 -0.137042,0.18429 -0.05198,0.11578 -0.07797,0.27881 -0.02363,0.16067 -0.02363,0.35206 v 1.33261 z m -0.441842,-1.28063 q 0,0.67103 -0.243368,0.99946 -0.241004,0.32843 -0.701749,0.32843 -0.21974,0 -0.392224,-0.0803 -0.170121,-0.0803 -0.290623,-0.24574 -0.11814,-0.16539 -0.181935,-0.41348 -0.06143,-0.25046 -0.06143,-0.58834 0,-1.32316 0.938029,-1.32316 0.243368,0 0.420577,0.0827 0.179572,0.0827 0.292986,0.2481 0.113414,0.16539 0.165396,0.41349 0.05434,0.24809 0.05434,0.57888 z m -0.366233,0 q 0,-0.29771 -0.0378,-0.49146 -0.03544,-0.19375 -0.108688,-0.30953 -0.07325,-0.11577 -0.179572,-0.16067 -0.103963,-0.0472 -0.233917,-0.0472 -0.134679,0 -0.243367,0.0496 -0.106326,0.0473 -0.181936,0.16539 -0.07561,0.11578 -0.115776,0.30953 -0.03781,0.19375 -0.03781,0.48437 0,0.29771 0.04253,0.49382 0.04253,0.19375 0.115777,0.30953 0.07561,0.11578 0.17721,0.16303 0.1016,0.0473 0.222102,0.0473 0.134679,0 0.241005,-0.0449 0.108688,-0.0473 0.184298,-0.16304 0.07561,-0.11577 0.115777,-0.31189 0.04017,-0.19611 0.04017,-0.49382 z M 52.9573,168.40655 v 2.24701 h -0.34733 v -2.24701 h -0.295349 v -0.30953 h 0.295349 v -0.28826 q 0,-0.1394 0.02126,-0.25754 0.02127,-0.12051 0.07797,-0.20793 0.05671,-0.0898 0.155944,-0.1394 0.09924,-0.052 0.255182,-0.052 0.06143,0 0.127591,0.007 0.06852,0.007 0.11814,0.0213 v 0.3237 q -0.03308,-0.007 -0.07561,-0.0118 -0.04253,-0.007 -0.07797,-0.007 -0.07797,0 -0.127591,0.026 -0.04962,0.026 -0.07797,0.0756 -0.02835,0.0472 -0.04017,0.11814 -0.0095,0.0709 -0.0095,0.16303 v 0.22919 h 0.408764 v 0.30953 z m -3.492207,1.05853 q 0,0.20084 0.04253,0.37096 0.04253,0.16776 0.113414,0.29062 0.07088,0.1205 0.179573,0.18903 0.111051,0.0662 0.266995,0.0662 0.226828,0 0.36387,-0.11105 0.137042,-0.11105 0.184298,-0.28117 l 0.307163,0.10633 q -0.03308,0.10632 -0.09215,0.21501 -0.05907,0.10633 -0.158307,0.19375 -0.09924,0.0851 -0.248093,0.14177 -0.146493,0.0543 -0.356782,0.0543 -0.46547,0 -0.708838,-0.33788 -0.243367,-0.33788 -0.243367,-1.00419 0,-0.35914 0.07325,-0.60723 0.07561,-0.25046 0.2032,-0.4064 0.127591,-0.15595 0.297712,-0.22447 0.170122,-0.0709 0.363871,-0.0709 0.264632,0 0.441842,0.10396 0.342605,0.20084 0.437117,0.71829 0.04489,0.24809 0.04489,0.53635 v 0.0567 z m 1.162494,-0.32607 q 0,-0.42766 -0.16067,-0.60015 -0.158307,-0.17484 -0.418214,-0.17484 -0.184298,0 -0.359145,0.15594 -0.212651,0.18194 -0.224465,0.61905 z m -3.130703,0.22447 q 0,0.21974 0.02599,0.40404 0.02599,0.18429 0.08742,0.31897 0.06143,0.13232 0.163033,0.20557 0.1016,0.0732 0.252818,0.0732 0.186661,0 0.309526,-0.12286 0.125228,-0.12287 0.153582,-0.37805 l 0.354419,0.0284 q -0.01654,0.1583 -0.07561,0.3048 -0.05907,0.14649 -0.158307,0.25754 -0.09924,0.11105 -0.243367,0.17957 -0.144131,0.0662 -0.330791,0.0662 -0.245731,0 -0.420578,-0.1016 -0.172483,-0.1016 -0.281172,-0.27881 -0.106326,-0.17957 -0.155944,-0.42058 -0.04726,-0.24336 -0.04726,-0.5269 0,-0.25754 0.03544,-0.45366 0.03544,-0.19847 0.09687,-0.34496 0.0638,-0.14886 0.148856,-0.2481 0.08506,-0.1016 0.184298,-0.16067 0.1016,-0.0614 0.210289,-0.0874 0.111051,-0.0284 0.224465,-0.0284 0.177209,0 0.314251,0.0591 0.137042,0.0591 0.23628,0.16303 0.1016,0.1016 0.163033,0.241 0.06143,0.13941 0.08742,0.30008 l -0.359145,0.0331 q -0.02599,-0.21265 -0.137042,-0.33788 -0.111051,-0.12523 -0.314251,-0.12523 -0.148856,0 -0.250456,0.0614 -0.09924,0.0591 -0.16067,0.18194 -0.06143,0.1205 -0.08742,0.3048 -0.02599,0.1843 -0.02599,0.43239 z m -1.141229,1.29008 v -1.62087 q 0,-0.18666 -0.02363,-0.31189 -0.02126,-0.12523 -0.07325,-0.20084 -0.04962,-0.078 -0.132317,-0.10869 -0.0827,-0.0331 -0.2032,-0.0331 -0.122865,0 -0.224465,0.0543 -0.09924,0.052 -0.170121,0.15358 -0.07088,0.0992 -0.111052,0.24809 -0.0378,0.1465 -0.0378,0.33788 v 1.48147 h -0.349694 v -2.01073 q 0,0 0,-0.16776 0,-0.0898 -0.0024,-0.16776 -0.0024,-0.0803 -0.0047,-0.13704 -0.0024,-0.0567 -0.0024,-0.0733 h 0.328428 q 0.0024,0.0118 0.0024,0.0638 0.0024,0.052 0.0047,0.1205 0.0047,0.0662 0.0047,0.13704 0.0024,0.0685 0.0024,0.11578 h 0.0071 q 0.04962,-0.11105 0.108688,-0.20084 0.06143,-0.0898 0.139405,-0.15122 0.08033,-0.0638 0.181935,-0.0969 0.103963,-0.0354 0.241005,-0.0354 0.174847,0 0.300075,0.052 0.125228,0.052 0.205563,0.16067 0.0827,0.10869 0.120502,0.28117 0.0378,0.17012 0.0378,0.4064 v 1.70357 z m -3.005472,0.0473 q -0.316614,0 -0.474921,-0.2032 -0.158307,-0.2032 -0.158307,-0.55762 0,-0.25282 0.07797,-0.41349 0.08033,-0.16303 0.205563,-0.25518 0.127591,-0.0922 0.290623,-0.12759 0.163033,-0.0354 0.330791,-0.0402 l 0.472559,-0.009 v -0.1394 q 0,-0.15831 -0.02835,-0.26936 -0.02599,-0.11105 -0.0827,-0.17957 -0.05671,-0.0685 -0.141768,-0.0992 -0.0827,-0.0331 -0.198475,-0.0331 -0.1016,0 -0.181935,0.0189 -0.08033,0.0165 -0.141767,0.0638 -0.05907,0.0449 -0.09688,0.12522 -0.03544,0.078 -0.04726,0.19848 l -0.36387,-0.0402 q 0.0189,-0.15122 0.07325,-0.27644 0.05434,-0.1276 0.153581,-0.21974 0.09924,-0.0922 0.248094,-0.14177 0.151218,-0.052 0.366233,-0.052 0.394586,0 0.593061,0.2221 0.200837,0.21974 0.200837,0.63795 v 1.10106 q 0,0.18903 0.04017,0.2859 0.04017,0.0945 0.155944,0.0945 0.02835,0 0.05671,-0.005 0.03072,-0.005 0.05671,-0.0118 v 0.26464 q -0.06616,0.0189 -0.132316,0.0284 -0.0638,0.009 -0.137042,0.009 -0.09924,0 -0.170122,-0.0307 -0.07088,-0.0331 -0.115776,-0.0969 -0.04253,-0.0662 -0.06616,-0.16067 -0.02363,-0.0969 -0.03072,-0.22446 h -0.0095 q -0.05671,0.12286 -0.125228,0.2221 -0.06616,0.0992 -0.155944,0.17012 -0.08742,0.0685 -0.203201,0.10633 -0.113414,0.0378 -0.259907,0.0378 z m 0.08033,-0.31898 q 0.167758,0 0.290624,-0.0732 0.125228,-0.0756 0.207925,-0.19139 0.0827,-0.11578 0.122866,-0.25282 0.04253,-0.13704 0.04253,-0.26227 v -0.21029 l -0.382773,0.009 q -0.12759,0.002 -0.243367,0.0236 -0.115777,0.0189 -0.2032,0.078 -0.08506,0.0591 -0.137042,0.1654 -0.05198,0.10633 -0.05198,0.27881 0,0.20793 0.09215,0.32134 0.09215,0.11341 0.26227,0.11341 z m -1.495642,0.27172 v -3.50638 h 0.349693 v 3.50638 z m -0.883684,-3.09998 v -0.4064 h 0.349694 v 0.4064 z m 0,3.09998 v -2.55654 h 0.349694 v 2.55654 z m -1.410589,1.00419 q -0.179572,0 -0.318977,-0.0449 -0.139404,-0.0449 -0.238642,-0.12996 -0.09924,-0.0827 -0.16067,-0.19847 -0.06143,-0.11578 -0.08979,-0.25754 l 0.352056,-0.0614 q 0.03544,0.17721 0.153582,0.27172 0.11814,0.0969 0.311889,0.0969 0.118139,0 0.215014,-0.0402 0.09687,-0.0402 0.165395,-0.12995 0.06852,-0.0874 0.103963,-0.22919 0.0378,-0.14177 0.0378,-0.34497 v -0.41113 h -0.0047 q -0.0378,0.0969 -0.09451,0.18666 -0.05671,0.0874 -0.139405,0.15595 -0.0827,0.0685 -0.191387,0.11105 -0.108688,0.0402 -0.248093,0.0402 -0.198474,0 -0.342605,-0.0803 -0.141767,-0.0827 -0.231554,-0.24573 -0.08979,-0.16303 -0.132316,-0.40404 -0.04017,-0.24336 -0.04017,-0.56234 0,-0.30716 0.04017,-0.55289 0.04253,-0.24574 0.134679,-0.41586 0.09451,-0.17248 0.243368,-0.26227 0.151219,-0.0922 0.366233,-0.0922 0.222102,0 0.385135,0.12523 0.165396,0.12287 0.255182,0.35206 h 0.0047 q 0,-0.0591 0.0024,-0.13232 0.0024,-0.0732 0.0047,-0.13704 0.0047,-0.0662 0.0071,-0.11341 0.0047,-0.0473 0.0095,-0.0543 h 0.330791 q -0.0024,0.0213 -0.0047,0.0733 -0.0024,0.0496 -0.0047,0.1205 0,0.0709 -0.0024,0.15831 0,0.0851 0,0.17721 v 1.95403 q 0,0.53635 -0.217377,0.80571 -0.215014,0.27172 -0.661582,0.27172 z m 0.531629,-2.28246 q 0,-0.26699 -0.04726,-0.45602 -0.04726,-0.19138 -0.125228,-0.31188 -0.07797,-0.12051 -0.17721,-0.17721 -0.09924,-0.0567 -0.2032,-0.0567 -0.134679,0 -0.231553,0.0567 -0.09451,0.0567 -0.158308,0.17957 -0.06379,0.1205 -0.09451,0.31189 -0.02835,0.18902 -0.02835,0.45365 0,0.27645 0.02835,0.46547 0.03072,0.18666 0.09215,0.30244 0.06379,0.11578 0.158307,0.1654 0.09451,0.0496 0.226828,0.0496 0.103963,0 0.2032,-0.0543 0.1016,-0.0543 0.179572,-0.17248 0.08034,-0.11814 0.127591,-0.3048 0.04962,-0.18666 0.04962,-0.4513 z m -2.209211,-1.82171 v -0.4064 h 0.349694 v 0.4064 z m 0,3.09998 v -2.55654 h 0.349694 v 2.55654 z m -1.327891,0 h -0.382772 l -1.115238,-3.32917 h 0.38986 l 0.756094,2.34389 q 0,0 0.05671,0.21029 l 0.05434,0.18902 q 0,0 0.05198,0.18903 0,0 0.04962,-0.1843 0,0 0.05198,-0.18666 l 0.06143,-0.21738 0.751368,-2.34389 h 0.389861 z m -3.234663,-0.41112 q -0.09687,0.24573 -0.257544,0.35205 -0.158307,0.10633 -0.394586,0.10633 -0.39695,0 -0.58361,-0.32607 -0.186661,-0.32606 -0.186661,-0.98764 0,-1.33734 0.770271,-1.33734 0.238642,0 0.396949,0.10632 0.158307,0.10633 0.255181,0.33788 h 0.0047 q 0,-0.0236 -0.0024,-0.0756 v -0.10396 q -0.0024,-0.0567 -0.0024,-0.10633 v -0.0709 -0.99001 h 0.349694 v 2.97948 q 0,0.0922 0,0.17721 0.0024,0.0851 0.0024,0.15595 0.0024,0.0709 0.0047,0.12286 0.0024,0.0496 0.0047,0.0709 h -0.333154 q -0.0047,-0.0236 -0.0071,-0.0661 -0.0024,-0.0449 -0.0071,-0.1016 -0.0024,-0.0567 -0.0047,-0.11814 0,-0.0638 0,-0.12523 z m -1.056168,-0.86951 q 0,0.26463 0.02599,0.45366 0.02599,0.18902 0.08506,0.31189 0.06143,0.1205 0.153582,0.17721 0.09451,0.0567 0.229191,0.0567 0.137042,0 0.241005,-0.0543 0.106325,-0.0543 0.177209,-0.17485 0.07088,-0.12286 0.106326,-0.31898 0.0378,-0.19611 0.0378,-0.47964 0,-0.27172 -0.0378,-0.45838 -0.03544,-0.18903 -0.108689,-0.30481 -0.07088,-0.11577 -0.174846,-0.16539 -0.1016,-0.052 -0.238642,-0.052 -0.127591,0 -0.222103,0.0543 -0.09215,0.0543 -0.153582,0.17485 -0.06143,0.1205 -0.09215,0.31425 -0.02835,0.19139 -0.02835,0.46547 z m -2.223388,0.0922 q 0,0.20084 0.04253,0.37096 0.04253,0.16776 0.113414,0.29062 0.07088,0.1205 0.179572,0.18903 0.111051,0.0662 0.266996,0.0662 0.226828,0 0.36387,-0.11105 0.137042,-0.11105 0.184298,-0.28117 l 0.307163,0.10633 q -0.03308,0.10632 -0.09215,0.21501 -0.05907,0.10633 -0.158307,0.19375 -0.09924,0.0851 -0.248094,0.14177 -0.146493,0.0543 -0.356781,0.0543 -0.465471,0 -0.708838,-0.33788 -0.243368,-0.33788 -0.243368,-1.00419 0,-0.35914 0.07325,-0.60723 0.07561,-0.25046 0.203201,-0.4064 0.127591,-0.15595 0.297712,-0.22447 0.170121,-0.0709 0.36387,-0.0709 0.264633,0 0.441842,0.10396 0.342605,0.20084 0.437117,0.71829 0.04489,0.24809 0.04489,0.53635 v 0.0567 z m 1.162494,-0.32607 q 0,-0.42766 -0.160669,-0.60015 -0.158308,-0.17484 -0.418215,-0.17484 -0.184298,0 -0.359144,0.15594 -0.212652,0.18194 -0.224466,0.61905 z m -1.708299,1.49565 q -0.08034,0.026 -0.163032,0.0402 -0.0827,0.0165 -0.191387,0.0165 -0.418214,0 -0.418214,-0.57889 v -1.70593 H 28.5591 v -0.30953 h 0.257545 l 0.1016,-0.57179 h 0.233916 v 0.57179 h 0.387498 v 0.30953 h -0.387498 v 1.61379 q 0,0.18429 0.04962,0.2599 0.04962,0.0733 0.170121,0.0733 0.04962,0 0.09687,-0.009 0.04962,-0.009 0.106325,-0.0236 z m -1.24283,-1.27118 q 0,0.29062 -0.0378,0.53635 -0.0378,0.24573 -0.129953,0.42294 -0.08979,0.17721 -0.238643,0.27881 -0.146493,0.0992 -0.36387,0.0992 -0.224465,0 -0.394586,-0.10396 -0.167758,-0.10397 -0.255182,-0.34024 h -0.01181 q 0.0024,0.005 0.0024,0.0425 0.0024,0.0378 0.0024,0.0945 0.0024,0.0567 0.0024,0.12759 0.0024,0.0685 0.0024,0.13704 v 0.99946 h -0.349693 v -3.03855 q 0,-0.0922 -0.0024,-0.17721 0,-0.0851 -0.0024,-0.15358 0,-0.0709 -0.0024,-0.1205 -0.0024,-0.0496 -0.0047,-0.0709 h 0.33788 q 0.0024,0.007 0.0047,0.0496 l 0.0071,0.1016 q 0.0024,0.0614 0.0047,0.12995 0.0024,0.0685 0.0024,0.12996 h 0.0071 q 0.04726,-0.12287 0.108689,-0.20793 0.06379,-0.0874 0.14413,-0.14177 0.08034,-0.0567 0.17721,-0.0803 0.09687,-0.026 0.219739,-0.026 0.217377,0 0.36387,0.0945 0.148856,0.0945 0.238643,0.267 0.09215,0.17012 0.129953,0.41349 0.0378,0.241 0.0378,0.53635 z m -0.366233,0.009 q 0,-0.23628 -0.02363,-0.42058 -0.02126,-0.18429 -0.08033,-0.31189 -0.05671,-0.12759 -0.151219,-0.19374 -0.09451,-0.0662 -0.238642,-0.0662 -0.115777,0 -0.21974,0.0402 -0.1016,0.0402 -0.179572,0.15359 -0.07561,0.11341 -0.120502,0.31425 -0.04253,0.19847 -0.04253,0.51745 0,0.27172 0.03544,0.46074 0.0378,0.18667 0.108689,0.30244 0.07088,0.11578 0.174847,0.16776 0.103962,0.0496 0.241004,0.0496 0.146494,0 0.241005,-0.0685 0.09451,-0.0685 0.151219,-0.19848 0.05907,-0.12995 0.08033,-0.31661 0.02363,-0.18902 0.02363,-0.43003 z m -3.272468,-1.27546 v 1.62088 q 0,0.18666 0.02126,0.31189 0.02363,0.12523 0.07325,0.2032 0.05198,0.0756 0.134679,0.10869 0.0827,0.0307 0.2032,0.0307 0.122866,0 0.222103,-0.052 0.1016,-0.0543 0.172484,-0.15358 0.07088,-0.1016 0.108688,-0.24809 0.04017,-0.14886 0.04017,-0.34025 v -1.48147 h 0.349693 v 2.01074 q 0,0 0,0.16776 0,0.0898 0.0024,0.17012 0.0024,0.078 0.0047,0.13468 0.0024,0.0567 0.0024,0.0732 H 25.70012 q -0.0024,-0.0118 -0.0047,-0.0638 0,-0.052 -0.0047,-0.11814 -0.0024,-0.0685 -0.0047,-0.13704 0,-0.0709 0,-0.11814 h -0.0071 q -0.04962,0.11105 -0.111051,0.20084 -0.05907,0.0898 -0.139405,0.15358 -0.07797,0.0614 -0.181935,0.0945 -0.1016,0.0354 -0.238642,0.0354 -0.174847,0 -0.300075,-0.052 -0.125228,-0.052 -0.207926,-0.16067 -0.08034,-0.10869 -0.11814,-0.27881 -0.0378,-0.17012 -0.0378,-0.40876 v -1.70358 z m -1.653954,2.55654 v -1.96111 q 0,0 0,-0.1654 0,-0.0827 -0.0024,-0.16067 -0.0024,-0.078 -0.0047,-0.14649 -0.0024,-0.0685 -0.0047,-0.12287 h 0.330791 q 0.0024,0.0543 0.0047,0.12523 0.0024,0.0685 0.0047,0.14177 0.0047,0.0732 0.0047,0.1394 v 0.11578 h 0.0095 q 0.0378,-0.14649 0.07797,-0.25282 0.04017,-0.10869 0.09687,-0.17721 0.05671,-0.0709 0.134679,-0.10396 0.07797,-0.0354 0.186661,-0.0354 0.04253,0 0.08034,0.009 0.04017,0.007 0.06143,0.0142 v 0.38987 q -0.03544,-0.0118 -0.0827,-0.0165 -0.04489,-0.007 -0.103963,-0.007 -0.120502,0 -0.205563,0.0662 -0.0827,0.0662 -0.137042,0.18429 -0.05198,0.11578 -0.07797,0.27881 -0.02363,0.16067 -0.02363,0.35206 v 1.33261 z m -1.320802,0 v -1.96111 q 0,0 0,-0.1654 0,-0.0827 -0.0024,-0.16067 -0.0024,-0.078 -0.0047,-0.14649 -0.0024,-0.0685 -0.0047,-0.12287 h 0.330791 q 0.0024,0.0543 0.0047,0.12523 0.0024,0.0685 0.0047,0.14177 0.0047,0.0732 0.0047,0.1394 v 0.11578 h 0.0095 q 0.0378,-0.14649 0.07797,-0.25282 0.04017,-0.10869 0.09687,-0.17721 0.05671,-0.0709 0.13468,-0.10396 0.07797,-0.0354 0.18666,-0.0354 0.04253,0 0.08034,0.009 0.04017,0.007 0.06143,0.0142 v 0.38987 q -0.03544,-0.0118 -0.0827,-0.0165 -0.04489,-0.007 -0.103963,-0.007 -0.120502,0 -0.205563,0.0662 -0.0827,0.0662 -0.137042,0.18429 -0.05198,0.11578 -0.07797,0.27881 -0.02363,0.16067 -0.02363,0.35206 v 1.33261 z m -1.963481,-1.18848 q 0,0.20084 0.04253,0.37096 0.04253,0.16776 0.113414,0.29062 0.07088,0.1205 0.179572,0.18903 0.111051,0.0662 0.266996,0.0662 0.226828,0 0.36387,-0.11105 0.137042,-0.11105 0.184298,-0.28117 l 0.307163,0.10633 q -0.03308,0.10632 -0.09215,0.21501 -0.05907,0.10633 -0.158307,0.19375 -0.09924,0.0851 -0.248094,0.14177 -0.146493,0.0543 -0.356781,0.0543 -0.465471,0 -0.708838,-0.33788 -0.243368,-0.33788 -0.243368,-1.00419 0,-0.35914 0.07325,-0.60723 0.07561,-0.25046 0.2032,-0.4064 0.127591,-0.15595 0.297712,-0.22447 0.170121,-0.0709 0.36387,-0.0709 0.264633,0 0.441842,0.10396 0.342605,0.20084 0.437117,0.71829 0.04489,0.24809 0.04489,0.53635 v 0.0567 z m 1.162495,-0.32607 q 0,-0.42766 -0.16067,-0.60015 -0.158308,-0.17484 -0.418215,-0.17484 -0.184298,0 -0.359144,0.15594 -0.212652,0.18194 -0.224466,0.61905 z m -1.708301,1.49565 q -0.08033,0.026 -0.163032,0.0402 -0.0827,0.0165 -0.191386,0.0165 -0.418215,0 -0.418215,-0.57889 v -1.70593 h -0.243368 v -0.30953 h 0.257545 l 0.1016,-0.57179 h 0.233917 v 0.57179 h 0.387498 v 0.30953 h -0.387498 v 1.61379 q 0,0.18429 0.04962,0.2599 0.04962,0.0733 0.170121,0.0733 0.04962,0 0.09688,-0.009 0.04962,-0.009 0.106325,-0.0236 z m -1.682308,0.0189 v -1.62087 q 0,-0.18666 -0.02363,-0.31189 -0.02126,-0.12523 -0.07325,-0.20084 -0.04962,-0.078 -0.132317,-0.10869 -0.0827,-0.0331 -0.2032,-0.0331 -0.122865,0 -0.224465,0.0543 -0.09924,0.052 -0.170121,0.15358 -0.07088,0.0992 -0.111051,0.24809 -0.0378,0.1465 -0.0378,0.33788 v 1.48147 h -0.349694 v -2.01073 q 0,0 0,-0.16776 0,-0.0898 -0.0024,-0.16776 -0.0024,-0.0803 -0.0047,-0.13704 -0.0024,-0.0567 -0.0024,-0.0733 h 0.328429 q 0.0024,0.0118 0.0024,0.0638 0.0024,0.052 0.0047,0.1205 0.0047,0.0662 0.0047,0.13704 0.0024,0.0685 0.0024,0.11578 h 0.0071 q 0.04962,-0.11105 0.108688,-0.20084 0.06143,-0.0898 0.139405,-0.15122 0.08034,-0.0638 0.181935,-0.0969 0.103963,-0.0354 0.241005,-0.0354 0.174847,0 0.300075,0.052 0.125228,0.052 0.205563,0.16067 0.0827,0.10869 0.120502,0.28117 0.0378,0.17012 0.0378,0.4064 v 1.70357 z m -2.2163,-3.09998 v -0.4064 h 0.349694 v 0.4064 z m 0,3.09998 v -2.55654 h 0.349694 v 2.55654 z m -0.87187,0 v -1.62087 q 0,-0.18666 -0.02363,-0.31189 -0.02126,-0.12523 -0.07325,-0.20084 -0.04962,-0.078 -0.132316,-0.10869 -0.0827,-0.0331 -0.2032,-0.0331 -0.122865,0 -0.224466,0.0543 -0.09924,0.052 -0.170121,0.15358 -0.07088,0.0992 -0.111051,0.24809 -0.03781,0.1465 -0.03781,0.33788 v 1.48147 h -0.349693 v -2.01073 q 0,0 0,-0.16776 0,-0.0898 -0.0024,-0.16776 -0.0024,-0.0803 -0.0047,-0.13704 -0.0024,-0.0567 -0.0024,-0.0733 h 0.328428 q 0.0024,0.0118 0.0024,0.0638 0.0024,0.052 0.0047,0.1205 0.0047,0.0662 0.0047,0.13704 0.0024,0.0685 0.0024,0.11578 h 0.0071 q 0.04962,-0.11105 0.108689,-0.20084 0.06143,-0.0898 0.139404,-0.15122 0.08033,-0.0638 0.181936,-0.0969 0.103962,-0.0354 0.241004,-0.0354 0.174847,0 0.300075,0.052 0.125228,0.052 0.205563,0.16067 0.0827,0.10869 0.120503,0.28117 0.0378,0.17012 0.0378,0.4064 v 1.70357 z m -3.048003,0.0473 q -0.224465,0 -0.425303,-0.0733 -0.200837,-0.0732 -0.354419,-0.22682 -0.151219,-0.15595 -0.241005,-0.39223 -0.08979,-0.23864 -0.08979,-0.56471 v -2.11942 h 0.370959 v 2.08162 q 0,0.25282 0.05434,0.43003 0.05671,0.17484 0.153581,0.2859 0.09924,0.11105 0.233917,0.16303 0.134679,0.0496 0.295349,0.0496 0.158307,0 0.300075,-0.052 0.141767,-0.052 0.248093,-0.1654 0.106326,-0.11341 0.167758,-0.29535 0.06143,-0.1843 0.06143,-0.44657 v -2.0509 h 0.368596 v 2.07689 q 0,0.33316 -0.09215,0.57889 -0.08979,0.24337 -0.245731,0.40404 -0.153581,0.16067 -0.361507,0.23864 -0.207926,0.078 -0.444205,0.078 z m 18.216231,-28.73809 h 6.04244 c 0,1.71026 1.45573,16.97064 14.27799,16.97064 7.51985,0 12.43313,-6.27541 12.89525,-14.17584 h 1.68694 v 14.36184 h -1.20783 c -0.27046,-1.68877 -0.44092,-3.54044 -1.69173,-3.63211 -1.47841,0 -4.85027,4.60269 -11.81771,4.67989 -14.99739,0 -19.25534,-12.56913 -20.18535,-18.20442 z m 0,-11.9014 h 6.04244 c 0,-1.71026 1.45573,-16.97064 14.27799,-16.97064 7.51985,0 12.43313,6.27541 12.89525,14.17584 h 1.68694 v -14.36184 h -1.20783 c -0.27046,1.68877 -0.44092,3.54044 -1.69173,3.63211 -1.47841,0 -4.85027,-4.60269 -11.81771,-4.67989 -14.99739,0 -19.25534,12.56913 -20.18535,18.20442 z m 43.868789,6.53251 1.726889,-3.13508 h -0.667038 l -1.371135,2.56439 -1.356312,-2.56439 h -0.711508 l 1.726889,3.14249 v 1.96406 h 0.652215 z m -4.400597,-1.69724 c 0,-0.94868 -0.659627,-1.43784 -1.919589,-1.43784 h -1.304431 v 5.10655 h 0.637393 v -2.18641 h 0.689273 l 1.400781,2.18641 h 0.7708 l -1.519365,-2.26052 c 0.704096,-0.17788 1.245138,-0.64481 1.245138,-1.40819 z m -0.681861,0 c 0,0.70409 -0.422458,0.97832 -1.156201,0.97832 h -0.748565 v -1.89736 h 0.741154 c 0.785623,0 1.163612,0.25941 1.163612,0.91904 z m -6.594413,-0.88198 h 1.5416 l 0.0667,-0.55586 H 59.56091 v 0.55586 h 1.593481 v 4.55069 h 0.644804 z m -5.438209,4.55069 h 0.904208 v -5.10655 h -0.600335 v 2.55698 c 0,0.91903 0.08153,1.74171 0.08894,1.94923 l -1.830651,-4.50621 h -0.874561 v 5.10655 h 0.600334 v -2.55698 c 0,-0.78563 -0.07411,-1.70466 -0.08894,-1.927 z m -7.187336,-4.57292 h 2.186404 l 0.07412,-0.53363 h -2.897912 v 5.10655 h 2.964616 V 138.0465 H 49.17365 v -1.80842 h 1.897354 v -0.52622 H 49.17365 Z m -3.422272,3.15731 c 0,-0.97091 -0.696684,-1.30443 -1.497131,-1.53419 -0.970911,-0.28163 -1.282196,-0.50398 -1.282196,-0.94126 0,-0.5114 0.459515,-0.75598 1.022792,-0.75598 0.42987,0 0.859739,0.14082 1.222904,0.45952 l 0.385401,-0.41505 c -0.42987,-0.37058 -0.933854,-0.58551 -1.630539,-0.58551 -0.978324,0 -1.652774,0.54845 -1.652774,1.31925 0,0.80786 0.629981,1.17844 1.645362,1.4749 0.874562,0.25199 1.111731,0.49657 1.111731,0.99315 0,0.6448 -0.563277,0.94867 -1.185846,0.94867 -0.62257,0 -1.05985,-0.21493 -1.415604,-0.54845 l -0.3854,0.43728 c 0.429869,0.41505 1.045027,0.6448 1.793592,0.6448 1.185847,0 1.867708,-0.61515 1.867708,-1.49713 z m -8.239772,-3.15731 h 2.186404 l 0.07412,-0.53363 h -2.897912 v 5.10655 h 2.964616 v -0.51881 h -2.327223 v -1.80842 h 1.897354 v -0.52622 h -1.897354 z m -3.303688,1.9937 c 0,-2.1197 -1.193258,-2.52733 -2.393928,-2.52733 h -1.089496 v 5.10655 h 1.171023 c 1.05985,0 2.312401,-0.43728 2.312401,-2.57922 z m -0.689274,0 c 0,1.68983 -0.807858,2.06041 -1.5416,2.06041 h -0.607746 v -4.06152 h 0.600334 c 0.704097,0 1.549012,0.22234 1.549012,2.00111 z m -5.141749,0.0297 c 0,-1.57125 -0.637393,-2.63851 -1.87512,-2.63851 -1.237727,0 -1.875119,1.10432 -1.875119,2.64592 0,1.57866 0.637392,2.62368 1.875119,2.62368 1.237727,0 1.87512,-1.08208 1.87512,-2.63109 z m -0.667039,0 c 0,1.36372 -0.348342,2.09005 -1.208081,2.09005 -0.837504,0 -1.208081,-0.71892 -1.208081,-2.08264 0,-1.35631 0.348343,-2.10488 1.208081,-2.10488 0.859739,0 1.208081,0.74116 1.208081,2.09747 z m -6.609234,-2.63851 c -1.178435,0 -2.186405,0.91162 -2.186405,2.6311 0,1.71947 0.970912,2.6385 2.216051,2.6385 0.726331,0 1.215492,-0.25199 1.526777,-0.55586 l -0.333519,-0.41505 c -0.274227,0.21494 -0.615158,0.42246 -1.185847,0.42246 -0.874561,0 -1.549011,-0.57069 -1.549011,-2.09005 0,-1.55643 0.726331,-2.09006 1.556423,-2.09006 0.392812,0 0.748566,0.10376 1.074673,0.37799 l 0.363166,-0.42246 c -0.407635,-0.31869 -0.81527,-0.49657 -1.482308,-0.49657 z" />
      </g>
    </g>
  </g>
</svg>
